<?xml version="1.0" standalone="no"?>
<!DOCTYPE svg PUBLIC "-//W3C//DTD SVG 20010904//EN"
 "http://www.w3.org/TR/2001/REC-SVG-20010904/DTD/svg10.dtd">
<svg version="1.0" xmlns="http://www.w3.org/2000/svg"
 width="700.000000pt" height="700.000000pt" viewBox="0 0 700.000000 700.000000"
 preserveAspectRatio="xMidYMid meet">
<metadata>
Created by potrace 1.14, written by Peter Selinger 2001-2017
</metadata>
<g transform="translate(0.000000,700.000000) scale(0.100000,-0.100000)"
fill="#000000" stroke="none">
<path d="M1050 4443 c0 -5 110 -337 243 -738 l244 -730 186 -3 185 -2 20 52
c10 29 86 250 167 491 82 240 151 434 155 430 3 -5 77 -225 165 -490 l160
-483 187 0 187 0 140 428 c77 235 188 568 245 740 l104 312 -168 0 -168 0
-173 -517 -172 -518 -33 100 c-18 55 -94 288 -170 518 l-136 417 -163 0 -162
0 -174 -511 c-95 -281 -176 -504 -178 -497 -3 7 -78 236 -167 508 l-162 495
-181 3 c-100 1 -181 -1 -181 -5z"/>
<path d="M3862 4120 c-127 -16 -252 -55 -340 -106 l-43 -25 56 -107 c31 -59
60 -110 64 -115 4 -4 38 9 77 28 133 68 310 83 410 34 58 -27 104 -95 104
-151 l0 -38 -192 0 c-285 0 -391 -29 -483 -132 -57 -64 -79 -133 -73 -229 15
-198 177 -319 428 -319 143 0 231 30 308 103 l42 41 0 -67 0 -68 158 3 157 3
0 375 c-1 407 -3 428 -62 543 -49 98 -180 189 -308 215 -78 16 -223 21 -303
12z m328 -741 l0 -72 -47 -47 c-55 -55 -97 -70 -196 -70 -118 0 -186 55 -174
142 12 92 71 114 300 117 l117 1 0 -71z"/>
<path d="M4644 4092 c3 -10 114 -265 246 -567 171 -389 239 -557 235 -573 -3
-12 -27 -44 -53 -71 -37 -38 -56 -50 -89 -55 -54 -8 -126 8 -182 41 -51 29
-40 40 -115 -108 l-55 -105 42 -27 c57 -37 156 -67 247 -74 203 -15 375 79
468 256 30 56 562 1283 562 1295 0 3 -73 6 -162 6 l-163 0 -159 -379 -160
-379 -16 36 c-9 20 -81 191 -160 380 l-143 342 -174 0 c-163 0 -174 -1 -169
-18z"/>
</g>
</svg>
